<?xml version="1.0" encoding="UTF-8"?>
<!DOCTYPE svg PUBLIC "-//W3C//DTD SVG 1.1//EN" "http://www.w3.org/Graphics/SVG/1.1/DTD/svg11.dtd">
<!-- Creator: CorelDRAW 2018 (64 Bit Versão de avaliação) -->
<svg xmlns="http://www.w3.org/2000/svg" xml:space="preserve" width="240.919mm" height="111.66mm" version="1.1" style="shape-rendering:geometricPrecision; text-rendering:geometricPrecision; image-rendering:optimizeQuality; fill-rule:evenodd; clip-rule:evenodd"
viewBox="0 0 23574.52 10926.16"
 xmlns:xlink="http://www.w3.org/1999/xlink">
 <defs>
  <style type="text/css">
   <![CDATA[
    .str0 {stroke:#E6E6E6;stroke-width:19.57;stroke-miterlimit:22.9256}
    .fil13 {fill:none}
    .fil20 {fill:black}
    .fil10 {fill:#00629F}
    .fil17 {fill:#1E447F}
    .fil19 {fill:#231F20}
    .fil6 {fill:#41447D}
    .fil12 {fill:#9B3234}
    .fil14 {fill:#F58634}
    .fil11 {fill:#FAAC39}
    .fil8 {fill:#FEFEFE}
    .fil0 {fill:white}
    .fil2 {fill:black;fill-rule:nonzero}
    .fil9 {fill:#00629F;fill-rule:nonzero}
    .fil18 {fill:#2556A0;fill-rule:nonzero}
    .fil3 {fill:#41447D;fill-rule:nonzero}
    .fil5 {fill:#EE353A;fill-rule:nonzero}
    .fil4 {fill:#F38939;fill-rule:nonzero}
    .fil7 {fill:#FEFEFE;fill-rule:nonzero}
    .fil15 {fill:#FFF212;fill-rule:nonzero}
    .fil1 {fill:white;fill-rule:nonzero}
    .fil16 {fill:url(#id0);fill-rule:nonzero}
   ]]>
  </style>
  <radialGradient id="id0" gradientUnits="userSpaceOnUse" gradientTransform="matrix(5.83958 -0 -0 5.83951 -95320 -17215)" cx="19695.98" cy="3557.09" r="1563.65" fx="19695.98" fy="3557.09">
   <stop offset="0" style="stop-opacity:1; stop-color:#9CD4F6"/>
   <stop offset="0.0784314" style="stop-opacity:1; stop-color:#97D3F4"/>
   <stop offset="0.160784" style="stop-opacity:1; stop-color:#89CDF2"/>
   <stop offset="0.258824" style="stop-opacity:1; stop-color:#70C6EF"/>
   <stop offset="0.360784" style="stop-opacity:1; stop-color:#4DBAE9"/>
   <stop offset="0.458824" style="stop-opacity:1; stop-color:#23ACE2"/>
   <stop offset="0.501961" style="stop-opacity:1; stop-color:#0CA5DF"/>
   <stop offset="1" style="stop-opacity:1; stop-color:#2D77BC"/>
  </radialGradient>
 </defs>
 <g id="Camada_x0020_1">
  <metadata id="CorelCorpID_0Corel-Layer"/>
  <polygon class="fil0" points="17147.2,10607.41 17147.2,7334.34 12343.7,7334.34 12343.7,10607.41 "/>
  <polygon class="fil1" points="17342.04,6269.06 12148.8,6269.06 12148.8,2904.39 17342.04,2904.39 "/>
  <path class="fil2" d="M13639.01 4264.65c33.82,-11.3 70,-17.43 107.65,-17.43 164.27,0 301.33,116.68 332.76,271.69l232.79 -47.48c-53.43,-263.44 -286.3,-461.77 -565.55,-461.77 -63.94,0 -125.46,10.43 -182.92,29.61l75.27 225.38 0 -0.01z"/>
  <path class="fil2" d="M13364.35 5018.96l157.41 -177.93c-70.31,-62.26 -114.59,-153.06 -114.59,-254.26 0,-101.2 44.31,-192.04 114.53,-254.21l-157.49 -177.92c-119.36,105.68 -194.6,260.12 -194.6,432.14 0,172.03 75.33,326.51 194.75,432.22l0 -0.03z"/>
  <path class="fil2" d="M14079.32 4654.9c-31.55,154.82 -168.51,271.35 -332.67,271.35 -37.7,0 -73.92,-6.15 -107.74,-17.48l-75.41 225.34c57.55,19.27 119.13,29.67 183.15,29.67 279.04,0 511.77,-198.03 565.4,-461.21l-232.76 -47.65 0.03 -0.03z"/>
  <path class="fil2" d="M15087.07 4814.11c-38.46,37.41 -90.62,60.18 -148.14,59.38 -39.44,-0.67 -76.01,-12.47 -107.09,-32.15l-77.05 122.78c52.76,33.37 115,53.09 182.07,54.13 97.65,1.44 186.62,-36.93 251.34,-100.24l-101.14 -103.89z"/>
  <path class="fil2" d="M14947.54 4313.91c-194.27,-2.94 -354.42,152.23 -357.35,346.7 -1.14,72.9 19.93,141.02 56.98,197.64l637.82 -272.61c-35.88,-153.64 -172.52,-269.15 -337.42,-271.75l-0.03 0 0 0.01zm-211.39 373.96l0 0c-0.89,-8.13 -1.49,-16.53 -1.25,-24.95 1.82,-114.59 96.09,-205.99 210.56,-204.1 62.32,0.8 117.63,29.37 155.04,73.53l-364.33 155.53 -0.01 0z"/>
  <path class="fil2" d="M15485.05 4155.25l0 679.95 118.02 48.92 -55.81 134.12 -116.68 -48.52c-26.23,-11.36 -43.97,-28.69 -57.49,-48.29 -12.94,-20.01 -22.58,-47.42 -22.58,-84.35l0 -681.83 134.52 0 0.03 0z"/>
  <path class="fil2" d="M15910.4 4469.46c20.64,-6.9 42.72,-10.64 65.73,-10.64 100.24,0 183.87,71.2 203.05,165.86l142.07 -28.98c-32.59,-160.81 -174.75,-281.88 -345.15,-281.88 -39.05,0 -76.58,6.37 -111.6,18.05l45.9 137.56 0 0.03z"/>
  <path class="fil2" d="M15742.77 4929.85l95.99 -108.61c-42.9,-37.95 -69.92,-93.4 -69.92,-155.25 0,-61.73 27.02,-117.15 69.86,-155.1l-96.09 -108.61c-72.84,64.53 -118.76,158.8 -118.76,263.69 0,105.05 45.92,199.33 118.89,263.86l0.03 0 0 0.01z"/>
  <path class="fil2" d="M16179.16 4707.63c-19.27,94.51 -102.9,165.64 -203.05,165.64 -23.01,0 -45.12,-3.8 -65.77,-10.7l-46.01 137.53c35.14,11.74 72.69,18.13 111.81,18.13 170.25,0 312.35,-120.89 345.13,-281.51l-142.07 -29.1 -0.03 0z"/>
  <polygon class="fil3" points="273.23,2876.68 273.23,6241.36 5630.79,6241.36 5630.79,2876.68 "/>
  <path class="fil4" d="M2455.17 4563.58c0,-824.74 668.53,-1493.23 1493.26,-1493.23 824.79,0 1493.14,668.5 1493.14,1493.23 0,824.61 -668.35,1493.23 -1493.14,1493.23 -824.74,0 -1493.26,-668.63 -1493.26,-1493.23z"/>
  <path class="fil5" d="M2948.27 3452.03c0.71,0 -78.21,68.25 -130.95,135.12l265.65 0c0,0 90.82,98.18 124.42,172.32l-519.23 0c0,0 -50.28,79.05 -83.74,145.93l686.77 0c0,0 62.83,117.47 76.5,179.54l-835.09 0c0,0 -28.67,81.4 -40.63,141.24l914.16 -1.15c25.11,114.79 86.09,448.56 -39.53,817.27l-830.36 1.08c13.23,44.14 35.86,104.12 57.42,148.24l713.16 0c-28.8,59.95 -70.73,135.25 -94.66,173.2l-522.83 0.37c27.57,41.81 71.81,107.7 100.51,137.73l321.88 -0.15c-60.39,83.35 -162.72,169.83 -162.72,169.83l-2.51 0 3.29 1.14c-264.48,238.18 -614.71,383.1 -998.67,383.1 -824.76,0 -1493.24,-668.63 -1493.24,-1493.23 0,-824.74 668.48,-1493.23 1493.24,-1493.23 383.21,0 732.77,144.32 997.15,381.67l0.02 0 -0.01 -0.02z"/>
  <path class="fil3" d="M2211.73 4351.58l-24.08 134.32 -130.98 -3.44c0,0 -65.4,17.29 -65.4,44.81 0,27.55 48.19,62.07 120.59,93.19 72.37,30.93 75.81,116.95 68.91,175.59 -6.87,58.55 -17.23,180.1 -227.51,186.12 -120.56,3.43 -185.99,-20.7 -185.99,-20.7l27.52 -137.81c0,0 155.09,41.39 189.58,17.16 34.4,-24.11 75.77,-65.52 10.28,-93 -65.42,-27.55 -172.24,-72.35 -172.24,-182.63 0,-110.28 44.78,-172.29 113.67,-203.4 68.94,-30.86 189.55,-27.5 275.65,-10.24l0 0.02z"/>
  <polygon class="fil3" points="1176.48,4966.15 1024.25,4966.15 1112.78,4442.77 924.52,4963.13 819.43,4963.13 794.04,4421.82 701.9,4966.15 557.89,4966.15 693.68,4167.23 868.38,4167.23 929.56,4627.29 1132.83,4167.23 1312.24,4167.23 "/>
  <path class="fil3" d="M2347.83 4977.42c-49.64,0 -85.01,-11.26 -106.25,-31.96 -21.17,-22.44 -31.89,-56.15 -31.89,-99.26 0,-11.26 1.2,-22.34 2.41,-31.91 1.17,-11.29 3.53,-24.11 4.69,-38.43l91.6 -511.5 142.83 0 -20.72 99.9 133.4 0 -22.44 126.36 -133.43 0 -36.61 217.86c-2.35,14.41 -4.74,28.75 -7.06,44.88 -2.36,14.35 -3.56,28.85 -3.56,38.45 0,22.46 3.56,36.79 12.97,44.8 8.37,7.96 22.49,12.82 41.39,12.82 7.11,0 16.52,-1.55 28.36,-4.86 11.8,-4.74 22.39,-7.96 29.39,-12.86l11.86 0 -22.5 128.1c-16.5,6.38 -32.97,9.62 -50.7,12.77 -17.72,3.41 -38.98,4.88 -63.73,4.88l0 -0.03z"/>
  <path class="fil3" d="M3372.53 4532.52c-31.03,-24.11 -100.58,-19.2 -115.06,30.23l-68.47 403.41 -142.79 0 102.72 -601.94 142.79 0 -3.04 48.56c27.25,-27.2 57.57,-50.21 134.12,-47.88 4.69,0.15 -46.27,89.37 -50.26,167.58l0 0.05 0 -0.01z"/>
  <path class="fil3" d="M3642.43 4982.37c-78.95,0 -141.58,-27.25 -184.08,-80.16 -43.84,-52.78 -64.91,-129.63 -64.91,-229 0,-78.34 9.42,-148.94 28.26,-212.98 18.78,-63.88 46,-118.33 79.17,-164.92 32.87,-44.76 72.05,-80.03 118.01,-105.59 44.83,-25.69 93.31,-38.48 144.14,-38.48 40.06,0 77.87,6.39 113.22,17.55 17.28,5.99 49.96,21.59 49.96,21.59l-33.07 189.77c-16.55,-21.01 -33.04,-37.46 -50.06,-49.61 -24.77,-15.93 -54.3,-25.51 -87.18,-25.51 -59.11,0 -107.45,31.92 -145.38,95.94 -38.99,64.12 -57.77,145.75 -57.77,244.96 0,64.09 10.73,110.64 31.79,139.34 21.21,27.25 52.08,41.67 92.09,41.67 36.68,0 70.92,-9.5 102.7,-28.9 15.22,-9.89 30.12,-20.33 44.43,-32.26l-33.17 181.25c0,0 -17.25,8.38 -25.38,11.24 -20.06,7.89 -37.78,12.77 -53.03,17.65 -16.72,3.24 -40.19,6.39 -69.75,6.39l0 0.05z"/>
  <path class="fil3" d="M1528.01 4945.48c-5.81,4.81 -11.76,8.08 -16.42,11.1 -15.42,8.13 -28.39,14.51 -41.34,19.39 -13.01,3.25 -30.81,6.39 -54.36,6.39 -36.63,0 -67.24,-14.51 -89.73,-41.67 -23.57,-28.72 -35.4,-65.67 -35.4,-110.48 0,-48.02 8.28,-88.11 24.83,-121.75 16.47,-32.13 41.29,-59.39 74.34,-78.41 30.74,-19.2 67.34,-32.04 108.66,-40.07l29.46 -4.88c34.32,-6.36 69.67,-11.07 108.64,-12.74 0,-3.22 0,-6.46 1.14,-11.19 1.18,-4.86 1.18,-9.58 1.18,-16.06 0,-25.56 -8.2,-43.23 -25.93,-54.5 -17.77,-9.62 -43.67,-14.31 -77.89,-14.31l-7.17 0c-21.23,1.5 -44.81,6.38 -70.78,15.98 -28.36,11.27 -49.61,19.22 -63.78,27.25l-12.94 0 21.23 -142.59c16.47,-6.38 42.4,-12.74 76.65,-19.1 16.57,-4.88 33.16,-6.43 49.61,-8.07 17.78,-3.22 36.68,-3.22 54.33,-3.22 69.63,0 120.4,12.74 153.52,36.8 32.99,24.06 48.39,62.53 48.39,115.26 0,6.46 0,15.99 -1.2,27.35 -1.15,11.24 -2.31,20.77 -3.46,30.3l-69.75 409.89 -141.68 0 10.73 -63.98c-8.33,7.99 -20.14,17.62 -31.97,28.9 -7.07,4.69 -12.94,9.62 -18.91,14.38l0 0.02zm0 -249.72l0 0c-15.26,3.21 -28.31,7.93 -38.94,12.69 -16.5,8.07 -28.31,19.1 -36.61,33.63 -9.42,14.51 -13.03,33.73 -13.03,57.64 0,20.84 5.94,35.18 16.67,43.21 11.75,8.12 27.1,12.84 49.51,12.84 7.12,0 14.14,-1.48 22.39,-4.72 7.17,-1.67 14.19,-4.88 22.49,-8.12 15.34,-9.53 30.62,-20.84 44.81,-33.61l21.33 -128.11c-24.8,3.22 -49.61,6.46 -70.87,11.35 -5.94,0 -11.78,1.47 -17.77,3.14l0.02 0.05z"/>
  <path class="fil3" d="M2762.76 4468.32c-18.88,3.04 -36.6,12.64 -50.77,28.85 -20.06,22.37 -35.35,51.17 -46.03,89.56l96.8 0 95.65 0c0,-6.36 1.22,-11.27 1.22,-17.63 0,-4.71 1.15,-11.1 1.15,-16.03 0,-28.9 -7.06,-49.61 -20.13,-65.75 -12.97,-14.24 -30.62,-22.24 -55.43,-22.24 -7.07,0 -15.42,1.55 -22.49,3.22l0.02 0.02zm0 377.86l0 0 21.29 0c30.66,0 60.19,-6.39 88.5,-20.84 27.17,-14.51 51.9,-30.49 72.08,-48.03l16.53 0 -27.18 155.33c-27.17,16.08 -56.73,28.85 -87.34,36.8 -25.98,8.02 -54.36,11.27 -83.87,12.94l-12.99 0c-76.75,0 -134.56,-22.56 -175.85,-68.91 -41.39,-44.88 -61.47,-107.31 -61.47,-187.32 0,-54.41 7.11,-105.67 20.1,-150.64 13.04,-46.37 33.07,-86.36 57.89,-121.64 24.8,-33.66 54.23,-59.19 90.91,-80.08 25.92,-12.75 53.17,-22.37 81.4,-27.2 12.97,-1.53 25.95,-1.53 38.98,-1.53 66.12,0 115.73,17.53 149.93,54.43 33.03,35.14 49.57,89.63 49.57,160.02 0,24.11 -1.28,48.12 -4.74,72.16 -3.56,22.32 -8.28,46.45 -14.17,68.79l-219.58 0 -110.96 0 0 6.38 0 6.46c0,41.67 11.76,73.72 33.04,97.51 17.7,19.39 43.72,32.14 77.95,35.38l-0.03 0z"/>
  <path class="fil3" d="M4100.73 4945.48c-6.01,4.81 -11.96,8.08 -17.77,11.1 -14.22,8.13 -28.36,14.51 -41.37,19.39 -12.94,3.25 -30.85,6.39 -53.19,6.39 -37.79,0 -67.34,-14.51 -90.79,-41.67 -23.57,-28.72 -34.47,-65.67 -34.47,-110.48 0,-48.02 8.52,-88.11 25.02,-121.75 16.35,-32.13 41.39,-59.39 73.15,-78.41 30.69,-19.2 67.34,-32.04 109.64,-40.07 9.63,-1.66 19.02,-3.21 29.76,-4.88 32.87,-6.36 69.55,-11.07 107.33,-12.74 1.2,-3.22 1.2,-6.46 2.48,-11.19 0,-4.86 1.11,-9.58 1.11,-16.06 0,-25.56 -9.42,-43.23 -25.95,-54.5 -17.82,-9.62 -43.6,-14.31 -78.05,-14.31l-6.92 0c-22.63,1.5 -46.08,6.38 -70.92,15.98 -28.39,11.27 -49.43,19.22 -63.73,27.25l-13.04 0 20.14 -142.59c16.55,-6.38 42.49,-12.74 77.84,-19.1 16.55,-4.88 33.17,-6.43 49.72,-8.07 17.65,-3.22 35.28,-3.22 54.31,-3.22 69.52,0 120.34,12.74 153.51,36.8 31.76,24.06 48.31,62.53 48.31,115.26 0,6.46 0,15.99 -1.3,27.35 -1.2,11.24 -2.31,20.77 -3.43,30.3l-69.72 409.89 -141.71 0 10.73 -63.98c-9.34,7.99 -20.24,17.62 -33.04,28.9l-17.65 14.38 0.02 0.02zm0 -249.72l0 0c-15.41,3.21 -28.45,7.93 -40.26,12.69 -15.27,8.07 -28.18,19.1 -36.68,33.63 -8.12,14.51 -13.03,33.73 -13.03,57.64 0,20.84 6.09,35.18 17.93,43.21 10.53,8.12 27.06,12.84 48.31,12.84 7.19,0 15.42,-1.48 23.74,-4.72 6.93,-1.67 14.02,-4.88 21.04,-8.12 16.55,-9.53 30.86,-20.84 44.88,-33.61l22.46 -128.11c-25.97,3.22 -49.49,6.46 -72.05,11.35 -5.82,0 -11.63,1.47 -16.33,3.14l0 0.05z"/>
  <path class="fil3" d="M4703.02 4532.52c-31.22,-24.11 -100.58,-19.2 -115.09,30.23l-68.39 403.41 -142.72 0 102.63 -601.94 142.81 0 -3.07 48.56c27.25,-27.2 57.58,-50.21 134.12,-47.88 4.72,0.15 -46.47,89.37 -50.25,167.58l-0.03 0.05 0 -0.01z"/>
  <path class="fil6" d="M4983.65 4492.26c-7.11,3.25 -14.14,8.13 -20.13,12.85 -18.76,12.76 -34.17,32.13 -47.18,54.4 -10.56,22.37 -19.96,48.12 -25.97,81.73 -7.12,31.97 -10.71,64.13 -10.71,94.53 0,36.82 7.06,62.33 19.02,78.54 12.89,17.43 31.77,25.55 56.81,25.55 9.31,0 18.7,-1.74 28.15,-6.38 4.72,-1.74 8.3,-3.21 12.9,-6.46 14.34,-8 27.34,-16.16 40.11,-27.22l50.8 -296.22c-8.15,-4.89 -17.48,-9.5 -30.67,-12.95 -11.83,-4.69 -22.36,-6.38 -31.76,-6.38 -15.42,0 -28.48,3.17 -41.39,8.07l0.02 -0.05zm0 442.06l0 0c-10.5,9.62 -22.34,19.22 -35.37,27.15 -11.81,6.38 -23.64,12.84 -34.17,15.98 -11.91,3.24 -26.15,4.91 -41.37,4.91 -43.9,0 -78.05,-19.42 -103.99,-56.18 -24.68,-38.35 -37.61,-92.74 -37.61,-161.71 0,-57.64 5.81,-112.12 19.86,-161.76 13.03,-49.61 31.96,-94.47 55.68,-132.82 23.56,-38.45 50.8,-67.24 82.61,-89.73 30.67,-20.84 61.32,-31.92 94.4,-33.58l4.72 0c24.84,0 46.08,3.21 63.73,9.57 17.9,6.43 36.68,17.63 55.5,32.13l31.77 -210 142.69 0 -130.86 787.89 -142.71 0 10.72 -62.35c-13.23,11.29 -24.84,20.89 -35.57,30.49l-0.03 0z"/>
  <path class="fil7" d="M2240.54 4330.08l-24.13 134.26 -131 -3.32c0,0 -65.45,17.07 -65.45,44.68 0,27.55 48.22,62.07 120.57,93.03 72.42,31.1 75.88,117.15 68.91,175.77 -6.85,58.58 -17.16,180.13 -227.41,186.12 -120.61,3.44 -186.12,-20.7 -186.12,-20.7l27.57 -137.83c0,0 155.06,41.39 189.57,17.16 34.47,-24.11 75.82,-65.47 10.29,-93 -65.45,-27.52 -172.32,-72.47 -172.32,-182.6 0,-110.25 44.81,-172.29 113.76,-203.38 68.84,-30.93 189.5,-27.55 275.7,-10.24l0.05 0.03z"/>
  <polygon class="fil7" points="1205.22,4944.77 1052.93,4944.77 1141.49,4421.17 953.21,4941.6 848.16,4941.6 822.72,4400.32 730.64,4944.77 586.56,4944.77 722.37,4145.68 897.11,4145.68 958.3,4605.75 1161.52,4145.68 1341.01,4145.68 "/>
  <path class="fil7" d="M2376.56 4955.91c-49.62,0 -84.99,-11.15 -106.21,-32.07 -21.35,-22.37 -31.96,-56.07 -31.96,-99.21 0,-11.24 1.2,-22.34 2.41,-32.13 1.19,-11.07 3.5,-23.84 4.71,-38.35l91.57 -511.33 142.84 0 -20.79 99.82 133.43 0 -22.44 126.39 -133.33 0 -36.63 217.99c-2.36,14.21 -4.72,28.64 -7.14,44.6 -2.31,14.51 -3.51,28.99 -3.51,38.5 0,22.37 3.51,36.88 12.97,44.9 8.3,7.96 22.49,12.84 41.31,12.84 7.12,0 16.53,-1.77 28.31,-4.88 11.88,-4.74 22.54,-7.96 29.56,-12.84l11.83 0 -22.47 128.18c-16.52,6.38 -33,9.62 -50.7,12.64 -17.77,3.21 -38.98,4.91 -63.8,4.91l0.05 0.05z"/>
  <path class="fil7" d="M3401.38 4510.99c-31.22,-24.13 -100.68,-19.23 -115.08,30.2l-68.55 403.55 -142.69 0 102.72 -602.07 142.71 0 -2.96 48.55c27.25,-27.2 57.37,-50.28 133.84,-47.9 4.91,0.18 -46.27,89.47 -49.95,167.66l-0.03 0z"/>
  <path class="fil7" d="M3671.17 4960.82c-79.18,0 -141.81,-27.15 -184.08,-80.15 -43.75,-52.76 -65.01,-129.61 -65.01,-229 0,-78.49 9.5,-148.95 28.36,-212.98 18.86,-64.07 46.08,-118.4 78.96,-164.9 33.16,-44.76 72.22,-80.03 118.28,-105.64 44.55,-25.71 93.12,-38.5 143.81,-38.5 40.06,0 78.05,6.41 113.47,17.7 17.07,5.84 50.06,21.43 50.06,21.43l-33.17 189.87c-16.53,-21.02 -33.07,-37.63 -49.96,-49.61 -24.84,-15.99 -54.43,-25.71 -87.47,-25.71 -59.01,0 -107.4,32.13 -145.18,96.16 -38.9,64.07 -57.92,145.83 -57.92,245.01 0,64.01 10.71,110.57 31.97,139.24 21.23,27.18 51.89,41.67 92.19,41.67 36.45,0 70.63,-9.82 102.69,-28.85 15.03,-10.02 29.84,-20.42 44.34,-32.33l-33.26 181.23c0,0 -17.16,8.42 -25.41,11.26 -19.93,7.96 -37.59,12.74 -53.01,17.43 -16.55,3.17 -40.06,6.59 -69.62,6.59l-0.02 0.07z"/>
  <path class="fil7" d="M1556.79 4923.84c-5.87,4.91 -11.84,8.07 -16.55,11.27 -15.34,8.02 -28.31,14.4 -41.29,19.09 -12.97,3.17 -30.7,6.59 -54.31,6.59 -36.63,0 -67.29,-14.51 -89.68,-41.67 -23.64,-28.99 -35.47,-65.77 -35.47,-110.48 0,-48 8.22,-88.11 24.84,-121.62 16.55,-32.23 41.22,-59.5 74.36,-78.6 30.67,-19.1 67.29,-31.97 108.64,-39.99l29.46 -4.89c34.19,-6.38 69.67,-11.1 108.66,-12.84 0,-3.14 0,-6.38 1.15,-11.19 1.2,-4.69 1.2,-9.62 1.2,-15.98 0,-25.56 -8.35,-43.21 -26,-54.47 -17.78,-9.5 -43.75,-14.32 -77.95,-14.32l-7.06 0c-21.24,1.57 -44.86,6.36 -70.81,15.96 -28.33,11.29 -49.67,19.22 -63.81,27.25l-12.96 0 21.23 -142.52c16.52,-6.38 42.47,-12.79 76.75,-19.17 16.47,-4.86 33.02,-6.41 49.56,-8.08 17.78,-3.24 36.56,-3.24 54.33,-3.24 69.7,0 120.42,12.79 153.41,36.8 33.07,24.11 48.42,62.56 48.42,115.29 0,6.46 0,15.98 -1.17,27.35 -1.2,11.24 -2.41,20.89 -3.61,30.39l-69.55 409.91 -141.8 0 10.7 -64.1c-8.3,8.03 -20.1,17.63 -31.89,28.9 -7.06,4.72 -12.99,9.63 -18.88,14.32l0.08 0.05zm0 -249.65l0 0c-15.39,3.24 -28.31,7.93 -38.99,12.84 -16.5,7.88 -28.35,19.02 -36.55,33.51 -9.45,14.53 -12.99,33.63 -12.99,57.64 0,20.89 5.9,35.2 16.45,43.2 11.84,7.98 27.23,12.84 49.62,12.84 7.07,0 14.17,-1.55 22.47,-4.85 7.06,-1.5 14.21,-4.75 22.49,-7.98 15.31,-9.62 30.59,-20.84 44.78,-33.58l21.23 -128.13c-24.77,3.24 -49.61,6.46 -70.73,11.27 -5.97,0 -11.88,1.57 -17.77,3.24z"/>
  <path class="fil7" d="M2791.42 4446.75c-18.83,3.22 -36.53,12.84 -50.7,28.7 -20.1,22.56 -35.47,51.38 -46.05,89.75l96.78 0 95.69 0c0,-6.35 1.2,-11.26 1.2,-17.62 0,-4.72 1.15,-11.15 1.15,-15.91 0,-28.99 -7.06,-49.66 -20.13,-65.84 -12.97,-14.24 -30.59,-22.24 -55.48,-22.24 -7.05,0 -15.27,1.48 -22.44,3.14l-0.03 0.03zm0 377.92l0 0 21.28 0c30.72,0 60.23,-6.38 88.63,-20.84 27.1,-14.48 51.94,-30.39 71.85,-48.02l16.55 0 -27.06 155.25c-27.12,16.27 -56.66,28.92 -87.29,36.95 -26,7.96 -54.36,11.15 -83.92,12.84l-12.89 0c-76.75,0 -134.64,-22.44 -175.93,-68.92 -41.26,-44.88 -61.45,-107.3 -61.45,-187.29 0,-54.5 7.15,-105.66 20.16,-150.66 12.94,-46.35 33.03,-86.44 57.77,-121.67 24.82,-33.58 54.38,-59.14 90.89,-79.98 26.02,-12.79 53.22,-22.39 81.48,-27.25 12.99,-1.48 25.95,-1.48 38.98,-1.48 66.16,0 115.7,17.44 149.93,54.31 33.02,35.26 49.64,89.66 49.64,160.21 0,24.03 -1.2,48.03 -4.72,72.13 -3.61,22.27 -8.3,46.38 -14.19,68.74l-219.65 0 -110.95 0 0 6.38 0 6.36c0,41.67 11.83,73.7 33.06,97.64 17.73,19.37 43.65,32.13 77.85,35.35l-0.05 -0.05z"/>
  <path class="fil7" d="M4129.28 4923.84c-5.82,4.91 -11.84,8.07 -17.65,11.27 -14.12,8.02 -28.26,14.4 -41.2,19.09 -13.01,3.17 -30.83,6.59 -53.2,6.59 -37.86,0 -67.31,-14.51 -90.89,-41.67 -23.64,-28.99 -34.35,-65.77 -34.35,-110.48 0,-48 8.23,-88.11 24.92,-121.62 16.42,-32.23 41.17,-59.5 73.23,-78.6 30.59,-19.1 67.24,-31.97 109.63,-39.99 9.53,-1.75 18.91,-3.25 29.46,-4.89 33.17,-6.38 69.85,-11.1 107.61,-12.84 1.08,-3.14 1.08,-6.38 2.18,-11.19 0,-4.69 1.32,-9.62 1.32,-15.98 0,-25.56 -9.33,-43.21 -26.17,-54.47 -17.62,-9.5 -43.55,-14.32 -77.75,-14.32l-7.21 0c-22.37,1.57 -45.88,6.36 -70.68,15.96 -28.41,11.29 -49.67,19.22 -63.81,27.25l-12.89 0 20.13 -142.52c16.53,-6.38 42.3,-12.79 77.85,-19.17 16.55,-4.86 32.87,-6.41 49.42,-8.08 17.98,-3.24 35.35,-3.24 54.41,-3.24 69.72,0 120.35,12.79 153.59,36.8 31.79,24.11 48.31,62.56 48.31,115.29 0,6.46 0,15.98 -1.11,27.35 -1.27,11.24 -2.41,20.89 -3.81,30.39l-69.52 409.91 -141.8 0 10.9 -64.1c-9.63,8.03 -20.14,17.63 -33.04,28.9l-17.98 14.32 0.08 0.05zm0 -249.65l0 0c-15.23,3.24 -28.16,7.93 -39.97,12.84 -15.26,7.88 -28.48,19.02 -36.48,33.51 -8.52,14.53 -13.23,33.63 -13.23,57.64 0,20.89 6.01,35.2 17.82,43.2 10.56,7.98 27.17,12.84 48.42,12.84 6.87,0 15.39,-1.55 23.45,-4.85 7.21,-1.5 14.31,-4.75 21.23,-7.98 16.55,-9.62 30.66,-20.84 44.97,-33.58l22.37 -128.13c-25.95,3.24 -49.62,6.46 -72.03,11.27 -5.82,0 -11.64,1.57 -16.55,3.24z"/>
  <path class="fil7" d="M4731.88 4510.99c-31.22,-24.13 -100.68,-19.23 -115.09,30.2l-68.39 403.55 -142.82 0 102.7 -602.07 142.71 0 -2.95 48.55c27.06,-27.2 57.38,-50.28 134.05,-47.9 4.72,0.18 -46.45,89.47 -50.16,167.66l-0.05 0z"/>
  <path class="fil8" d="M5012.39 4470.73c-7.12,3.24 -14.04,8.15 -20.03,12.84 -19.05,12.77 -34.28,32.13 -47.21,54.5 -10.71,22.27 -20.13,48.02 -25.95,81.66 -7.19,31.91 -10.71,64.09 -10.71,94.49 0,36.85 7.07,62.44 18.71,78.34 13.21,17.65 31.97,25.75 56.81,25.75 9.62,0 19.02,-1.74 28.35,-6.46 4.7,-1.66 8.33,-3.14 13.01,-6.35 14.14,-8.03 27.06,-16.16 40.07,-27.25l50.72 -296.2c-8.23,-4.91 -17.65,-9.82 -30.59,-12.94 -11.96,-4.72 -22.47,-6.29 -32.07,-6.29 -15.22,0 -28.18,3.04 -41.2,7.94l0.08 -0.03zm0 442.06l0 0c-10.71,9.63 -22.54,19.1 -35.45,27.15 -11.76,6.36 -23.57,12.74 -34.05,15.99 -12.03,3.21 -26.15,4.88 -41.41,4.88 -43.75,0 -78.05,-19.3 -104,-56.18 -24.78,-38.34 -37.73,-92.82 -37.73,-161.71 0,-57.62 5.81,-112.12 20.13,-161.73 12.89,-49.52 31.77,-94.48 55.51,-132.72 23.66,-38.57 50.7,-67.47 82.49,-89.81 30.85,-20.84 61.49,-31.92 94.56,-33.66l4.69 0c24.67,0 46.08,3.25 63.86,9.63 17.62,6.33 36.68,17.65 55.43,32.06l31.76 -209.9 142.79 0 -130.85 788 -142.82 0 10.54 -62.46c-12.95,11.07 -24.83,20.84 -35.38,30.49l-0.07 -0.03z"/>
  <polygon class="fil8" points="6377.45,6212.12 11219.39,6212.12 11219.39,2905.97 6377.45,2905.97 "/>
  <polygon class="fil9" points="11212.67,6241.36 6299.28,6241.36 6299.28,2876.68 11297.59,2876.68 11297.59,6241.36 11212.68,6241.36 "/>
  <polygon class="fil8" points="6384.2,6156.41 11212.67,6156.41 11212.67,2961.64 6384.2,2961.64 "/>
  <polygon class="fil10" points="8129.33,5077.9 8442.9,4043.94 8722.68,4043.94 8409.07,5077.9 8129.32,5077.9 "/>
  <path class="fil10" d="M8004.2 4044.17l-251.69 438.32c-64.05,114.8 -101.51,172.79 -119.54,245.33l-3.83 0c4.46,-91.96 -8.38,-204.84 -9.55,-268.67l-27.82 -414.97 -470.98 0 -4.81 27.82c120.98,0 192.72,60.79 212.49,185.16l91.79 820.76 289.86 0 586.12 -1033.69 -292.05 0 0.02 -0.03 0 -0.01z"/>
  <path class="fil10" d="M10180.13 5077.9l-7.73 -153.78 -349.37 -0.27 -71.47 154.05 -303.76 0 550.81 -1032.01 372.85 0 93.29 1032.01 -284.61 0zm-32.14 -609.88c-3.14,-76.43 -5.74,-180.16 -0.52,-242.9l-4.12 0c-17.05,51.35 -90.18,205.43 -122.36,281.3l-104.09 226.6 245.3 0 -14.21 -264.99z"/>
  <path class="fil10" d="M9016.39 5107.24c-197.53,0 -328.63,-62.65 -422.18,-118.53l133.23 -203.54c84.04,47.02 150.01,101.25 301.8,101.25 48.83,0 95.82,-12.67 122.56,-58.9 38.89,-67.24 -9.01,-103.43 -118.28,-165.32l-53.99 -35.11c-162.03,-110.74 -232.1,-215.86 -155.82,-399.41 48.83,-117.43 177.52,-206.4 389.9,-206.4 146.42,0 283.72,63.32 363.76,125.21l-153.22 179.73c-78.09,-63.14 -142.73,-95.08 -216.85,-95.08 -59.04,0 -103.92,22.79 -119.38,53.5 -29.17,57.72 9.42,97.1 94.54,149.93l64.2 40.87c196.69,124.06 243.58,254.2 194.27,375.79 -84.8,209.36 -250.82,256.13 -424.52,256.13l0 -0.1 0 -0.01z"/>
  <path class="fil10" d="M10547.95 4184.07l-12.08 0 0 -73.77 28 0c17.8,0 26.9,6.2 26.9,21.2 0,13.36 -8.2,18.89 -19.25,20.13l20.65 32.44 -13.72 0 -19.05 -31.53 -11.44 0 0 31.53zm13.56 -41.92c9.09,0 17.09,-0.86 17.09,-11.57 0,-8.9 -8.71,-10.01 -16.03,-10.01l-14.63 0 0 21.56 13.57 0 0 0.02zm-0.35 70.43c-38.3,0 -65.55,-28.7 -65.55,-66.66 0,-40.06 30.27,-66.63 65.55,-66.63 34.9,0 65.2,26.57 65.2,66.63 0,40.12 -30.3,66.66 -65.2,66.66zm0 -121.72c-28.85,0 -51.31,22.63 -51.31,55.04 0,30.3 19.62,55.06 51.31,55.06 28.52,0 50.96,-22.44 50.96,-55.06 0,-32.41 -22.44,-55.04 -50.96,-55.04z"/>
  <polygon class="fil11" points="6511.64,6012.07 11093.77,6012.07 11093.77,5398.99 6511.64,5398.99 "/>
  <polygon class="fil10" points="6503.11,3727.61 11085.26,3727.61 11085.26,3114.49 6503.11,3114.49 "/>
  <path class="fil10" d="M10980.59 5968.47l-12.15 0 0 -73.78 27.99 0c17.8,0 26.91,6.24 26.91,21.21 0,13.36 -8.2,18.91 -19.25,20.13l20.7 32.44 -13.7 0 -19.1 -31.53 -11.39 0 0 31.53zm13.55 -41.88c9.08,0 17.09,-0.9 17.09,-11.59 0,-8.9 -8.71,-9.96 -16.03,-9.96l-14.61 0 0 21.55 13.55 0zm-0.36 70.38c-38.29,0 -65.57,-28.67 -65.57,-66.63 0,-40.06 30.3,-66.65 65.57,-66.65 34.94,0 65.21,26.56 65.21,66.65 0,40.07 -30.27,66.63 -65.21,66.63zm0 -121.72c-28.87,0 -51.3,22.66 -51.3,55.09 0,30.28 19.61,55.04 51.3,55.04 28.5,0 50.97,-22.44 50.97,-55.04 0,-32.43 -22.44,-55.09 -50.97,-55.09z"/>
  <path class="fil12" d="M1262.98 7854.47c-234.57,11.25 -426.23,105.88 -481.62,300.78 -28.91,101.77 -44.83,213.49 -67.42,318.98 -114.94,536.33 -216.83,1087.44 -326.77,1613.07l4138.99 0c319.98,0 539.69,-67.62 599.06,-321.58 27.57,-117.97 53.99,-251.59 80.39,-381.21 102.87,-505.36 205.83,-1010.7 311.21,-1530.02l-4253.86 0 0.02 0 0 -0.01z"/>
  <path class="fil8" d="M3934.89 9187.42c-57.48,56.26 -218.77,72.23 -202.28,-62.23 13.71,-111.7 135.32,-135.45 267.11,-119.29 -9.8,61.08 -21.05,138.65 -64.83,181.53zm-181.56 -435.7c-5.49,30.81 -13.91,58.7 -20.73,88.16 65.8,-16.5 270.7,-67.09 290.45,20.74 6.56,29.16 -4.76,60.18 -12.97,82.99 -185.3,-17.54 -336.33,13.23 -376.04,145.24 -26.62,88.42 2.96,175.42 59.65,199.71 109.13,46.75 241.9,-6.81 287.86,-80.4 -4.78,25.47 -9.31,51.19 -7.81,82.99l95.96 0c1.01,-91.92 14.38,-166.29 28.54,-248.98 12.06,-70.41 34.7,-140.12 31.12,-202.28 -8.25,-142.35 -244.03,-91.98 -376.04,-88.16l0 -0.02zm962.13 479.78c-75.07,1.59 -112.39,-44.86 -114.11,-121.88 -2.99,-134.91 56.19,-284.8 176.34,-298.23 55.95,-6.26 96.47,6.74 137.46,20.75 -37.63,151.53 -24.05,395.6 -199.7,399.35l0 0.02zm248.96 -713.17c-9.55,83.77 -22.34,164.39 -38.9,241.18 -273.54,-86.58 -441.29,114.67 -438.28,363.08 0.57,48.03 8.87,95.68 38.91,129.66 51.77,58.55 200.05,72.57 274.9,23.35 14.49,-9.53 29.29,-26.87 38.91,-38.91 7.21,-9.06 18.67,-32.76 20.73,-25.97 -3.94,26.32 -9.8,50.72 -10.38,80.42l101.14 0c19.49,-279.61 79.77,-518.46 124.48,-772.82l-111.52 0 0.02 0.01zm-2855.29 671.68c-59.66,63.16 -206.33,62.21 -217.84,-44.1 -5.01,-46.25 12.24,-94.77 20.75,-142.62 8.62,-48.46 14.81,-94.94 23.34,-137.47 58.76,-71.75 231.44,-80.42 248.97,38.93 15.21,103.58 -25.8,232.96 -75.22,285.27zm88.19 -438.29c-94.4,-35.45 -209.43,6.86 -259.29,47.12 0.17,1.78 -1.18,2.03 -2.65,2.15 0.84,-0.71 1.75,-1.43 2.65,-2.15 -0.02,-0.15 -0.02,-0.27 -0.05,-0.44 0.85,-17.33 6.94,-29.37 7.81,-46.68l-95.96 0c-39.98,266.03 -87.4,524.62 -137.45,780.59l111.51 0c16.15,-99.69 26.8,-204.85 49.29,-298.22 25.46,98.19 191.75,79.43 261.94,41.5 144.78,-78.3 256.45,-450.91 62.25,-523.87l-0.05 0 0 0.01zm529.03 186.72l-261.94 0c8.29,-60.23 62.46,-126.41 147.82,-129.66 80.34,-3.08 137.84,29.49 114.11,129.66l0.02 0zm-106.32 -197.11c-80.57,6.2 -148.7,29.39 -197.09,80.41 -59.37,62.54 -107.44,200.82 -93.37,326.75 20.11,179.67 243.81,173.23 422.72,129.68 3.05,-31.55 10.68,-58.49 15.56,-88.16 -73.7,27.58 -201.67,66.08 -277.48,18.15 -57.23,-36.19 -57.58,-127.83 -38.91,-207.49 120.25,-3.83 245.25,-3.07 365.65,0 7.67,-56.45 29.51,-117.98 10.38,-173.75 -25.24,-73.62 -115.54,-92.67 -207.47,-85.58l0 -0.02zm-980.29 10.37c-3.01,0.44 -2.82,4.09 -2.59,7.77 -24.57,183.76 -57.82,358.84 -93.35,531.63l111.5 0c26.8,-185.01 57.49,-366.1 95.95,-539.41l-111.51 0 0 0.02 0 -0.01zm2909.76 2.59c-98.57,-49.28 -180.62,33.42 -212.66,82.98 9.13,-25.45 9.65,-59.48 18.15,-85.56l-98.55 0c-26.58,185.21 -58.6,364.98 -95.96,539.41l114.12 0c0.72,-71.5 14.76,-124.39 25.93,-194.51 23.86,-149.7 58.85,-313.89 233.42,-264.51 5.78,-25.33 8.19,-54.05 15.56,-77.81l0 0.01zm-1252.58 409.73c-10.28,-26.54 -12.94,-70.39 -10.38,-103.73 5.77,-74.95 33.07,-166.16 75.22,-207.46 58.15,-56.99 172.96,-47.58 264.52,-15.58 2.83,-30.84 9.04,-58.38 12.97,-88.16 -150.18,-24.55 -292.71,-9.27 -368.27,70.02 -73.96,77.62 -122.44,255.99 -88.16,368.25 40.11,131.35 220.01,138.49 365.67,88.18 6.44,-26.41 9.84,-55.84 15.56,-83.01 -79.58,41.36 -231.75,62.86 -267.12,-28.54l-0.02 0.02zm-62.27 -412.33c-98.87,-39.93 -176.6,27.55 -212.65,90.76 8.19,-28.12 11.55,-61.06 18.14,-90.76l-98.55 0c-24.08,186.82 -59.59,362.25 -93.35,539.41l111.52 0c15.62,-105.18 22.37,-246.92 57.05,-347.52 27.7,-80.39 100.23,-148.86 204.85,-111.5 1.47,-29.67 9.96,-52.29 12.98,-80.4l0.01 0 0 0.01zm-1797.18 -217.86c-15.92,103.35 -33.88,204.73 -51.86,306.02 -115.52,1.24 -233.48,5.7 -344.92,-2.6 21.06,-99.09 36.13,-204.15 57.06,-303.41l-124.5 0c-44.56,252.82 -85.1,509.66 -134.85,757.28l127.07 0c19.94,-127.04 38.56,-255.35 64.85,-376.04 108.34,-2.65 238.2,-7.31 342.33,2.61 -21.48,125.48 -47.41,246.49 -67.42,373.44l127.08 0c40.82,-256.55 83.85,-510.9 134.86,-757.28l-129.68 0 -0.01 -0.02 0 -0.01zm316.38 114.11c22.23,-15.3 50.86,-85.06 18.16,-114.12 -10.37,-9.19 -27.69,-11.86 -51.87,-7.77 -22.42,3.82 -35.32,11.42 -44.08,23.33 -14.09,19.2 -27,77.07 -5.2,98.56 21.25,20.91 68.83,9.74 82.99,0z"/>
  <polygon class="fil13 str0" points="83.99,2641.27 5820.01,2641.27 5820.01,6532.23 83.99,6532.23 "/>
  <polygon class="fil13 str0" points="5926.16,2641.27 11662.18,2641.27 11662.18,6532.23 5926.16,6532.23 "/>
  <polygon class="fil13 str0" points="11877.42,2641.27 17613.45,2641.27 17613.45,6532.23 11877.42,6532.23 "/>
  <polygon class="fil13 str0" points="83.99,7025.42 5820.01,7025.42 5820.01,10916.37 83.99,10916.37 "/>
  <polygon class="fil13 str0" points="5926.16,7025.42 11662.18,7025.42 11662.18,10916.37 5926.16,10916.37 "/>
  <polygon class="fil13 str0" points="11877.42,7025.42 17613.45,7025.42 17613.45,10916.37 11877.42,10916.37 "/>
  <polygon class="fil13 str0" points="17828.7,7025.42 23564.73,7025.42 23564.73,10916.37 17828.7,10916.37 "/>
  <polygon class="fil13 str0" points="17828.7,2641.27 23564.73,2641.27 23564.73,6532.23 17828.7,6532.23 "/>
  <path class="fil14" d="M7328.74 7941.24l2165.61 -499.97c315.99,-72.96 634.23,125.88 707.19,441.89l499.97 2165.61c38.6,167.22 1.08,335.06 -89.62,466.84l-3293.97 0 -431.08 -1867.2c-72.96,-316 125.9,-634.24 441.9,-707.19l0 0.01z"/>
  <polygon class="fil7" points="8028.05,9755.61 7849.61,9755.61 7849.61,9366.62 7485.56,9366.62 7485.56,9755.61 7307.12,9755.61 7307.12,8857.36 7485.56,8857.36 7485.56,9208.09 7849.61,9208.09 7849.61,8857.36 8028.05,8857.36 "/>
  <path class="fil15" d="M8381.73 8891.31c0,14.79 -2.78,28.63 -8.78,41.56 -5.77,12.93 -13.62,24.24 -23.54,33.94 -9.93,9.7 -21.7,17.31 -35.32,22.85 -13.4,5.77 -27.7,8.55 -42.48,8.55 -14.54,0 -28.17,-2.78 -41.1,-8.55 -12.69,-5.54 -24,-13.15 -33.7,-22.85 -9.7,-9.7 -17.31,-21.01 -23.08,-33.94 -5.54,-12.93 -8.32,-26.77 -8.32,-41.56 0,-15 2.78,-28.85 8.32,-42.01 5.77,-12.94 13.39,-24.47 23.08,-34.17 9.7,-9.69 21.01,-17.31 33.7,-22.86 12.93,-5.76 26.56,-8.53 41.1,-8.53 14.78,0 29.08,2.77 42.48,8.53 13.62,5.55 25.39,13.17 35.32,22.86 9.92,9.7 17.77,21.23 23.54,34.17 6,13.16 8.78,27.01 8.78,42.01z"/>
  <path class="fil8" d="M8527.85 9973.31l0 -207.62 -8.99 0.09c-46.4,0 -89.57,-7.62 -129.73,-23.08 -9.79,-3.71 -19.24,-7.88 -28.4,-12.49 -106.62,-54.87 -160.26,-167.1 -171.75,-325.02l0 -2.13 0 -297.02 171.75 0c0,83.82 5,226.74 0,338.39 0,25.65 7.86,60.76 16.85,84.73 9,23.78 21,43.4 35.78,58.63 15,15.46 32.55,26.77 52.86,34.16 18.67,7.01 39.09,10.69 61.63,11.23l0 -527.15 105.5 0c10.85,0 20.16,2.47 27.47,7.39 7.44,4.99 12.03,12.76 14.54,23.08l14.33 58.87c13.39,-15 27.71,-28.85 42.48,-41.31 15,-12.67 30.96,-23.51 48.48,-32.56 17.32,-8.95 36,-16.05 56.1,-21.01 20.05,-4.94 41.78,-7.39 65.1,-7.39 35.77,0 68.3,7.72 98.11,23.08 29.73,15.32 55.56,37.47 77.1,66.48 60.81,81.96 68.33,128 68.33,231.98 0,50.09 -6.68,96.49 -20.31,139.43 -13.39,42.71 -32.54,79.88 -57.48,111.28 -24.7,31.39 -54.72,55.86 -89.57,73.64 -34.86,17.77 -74.09,26.77 -117.27,26.77 -36.47,0 -67.41,-5.54 -92.8,-16.63 -25.17,-11.08 -48.03,-26.08 -68.33,-45.01l0 269.17 -171.76 0zm315.35 -766.19c-32.09,0 -59.1,6.47 -81.27,19.16 -22.15,12.93 -42.94,31.63 -62.32,55.86l0 297.57c17.31,20.77 35.78,35.32 55.87,43.63 20.07,8.31 41.54,12.47 64.62,12.47 22.16,0 42.25,-4.38 60.49,-13.16 18.23,-8.78 33.94,-22.16 47.1,-40.16 12.93,-18.01 23.08,-40.86 30.01,-68.57 6.92,-27.94 10.61,-60.95 10.61,-99.27 0,-37.86 -2.99,-69.94 -8.76,-96.27 -6.01,-26.31 -14.33,-47.78 -25.18,-64.18 -10.83,-16.62 -23.78,-28.39 -39.24,-36.01 -15.23,-7.38 -32.55,-11.08 -51.94,-11.08z"/>
  <path class="fil7" d="M9552.59 9095.18c42.48,0 81.56,6.85 117.05,20.55 35.56,13.73 66.21,33.79 91.87,59.56 25.76,25.9 45.85,36.05 60.25,73.84 14.42,37.88 21.7,81.02 21.7,129.74 0,13.15 -0.69,23.78 -2.07,32.08 -1.38,8.32 -3.46,15.01 -6.47,20.09 -2.77,4.85 -6.92,8.31 -12.01,10.39 -5.3,2.07 -11.77,2.99 -19.38,2.99l-401.68 0c2.77,32.56 8.54,60.72 17.55,84.73 8.99,23.78 21,43.4 35.77,58.63 15,15.46 32.56,26.77 52.86,34.16 20.31,7.62 42.71,11.31 67.64,11.31 24.72,0 46.19,-2.99 64.42,-9.24 18.47,-5.99 34.4,-12.69 48.24,-19.61 13.63,-6.93 25.86,-13.4 36.71,-19.63 10.85,-6.01 21.47,-9 31.86,-9 12.69,0 22.86,5.08 31.16,15.46l49.41 63.49c-18.7,21.7 -39.01,39.72 -61.64,53.8 -22.62,14.31 -45.94,25.62 -69.94,33.94 -24.24,8.31 -48.71,14.31 -73.42,18 -24.93,3.47 -48.71,5.31 -71.79,5.31 -307.58,0 -395.54,-353.77 -243.78,-572.94 23.24,-33.56 61.43,-53.82 101.11,-71.33 39.69,-17.53 84.5,-26.32 134.59,-26.32zm3.47 100.4c-43.87,0 -78.03,12.69 -102.96,38.33 -24.71,25.39 -40.63,61.4 -48.03,107.8l284.19 0c0,-19.38 -2.55,-37.86 -7.86,-55.4 -5.09,-17.54 -13.15,-33.25 -24.24,-46.64 -11.08,-13.61 -24.94,-24.24 -41.56,-32.32 -16.86,-7.84 -36.7,-11.77 -59.55,-11.77z"/>
  <path class="fil7" d="M9959.82 9755.61l0 -649.58 100.89 0c17.54,0 29.77,3.33 36.7,9.46 7.06,6.24 12.07,17.37 14.07,33.02l8.78 68.33c20.31,-38.32 43.96,-68.54 70.87,-90.49 27.01,-22.06 58.4,-33.24 93.95,-33.24 29.33,0 53.56,6.93 72.49,21.01l-12.92 106.62c-0.96,7.97 -3.62,13.77 -8.09,17.09 -4.43,3.28 -10.62,5.07 -18.24,5.07 -6.68,0 -16.38,-0.92 -29.08,-2.99 -12.69,-2.07 -24.24,-3 -35.08,-3 -15.94,0 -30.02,2.31 -42.25,6.7 -12.47,4.61 -23.54,11.31 -33.24,20.08 -9.7,8.77 -18.47,19.39 -26.09,32.09 -7.62,12.47 -14.55,27.02 -21.01,43.17l0 416.68 -171.75 0z"/>
  <path class="fil16" d="M22241.93 3026.68l-3108.86 0 0 3120.09 3108.86 0 0 -1029.7c12.35,-17.86 18.44,-40.71 18.44,-68.61 0,-31.96 -6.09,-51.75 -18.44,-68.42l0 -1953.37 0 0.01z"/>
  <path class="fil1" d="M19413.31 4376.81l-59.81 -145.74 -59.47 145.74 119.28 0zm1317.53 -58.04l0 0c-12,7.29 -26.2,7.53 -43.21,7.53l-106.15 0 0 -81.2 107.59 0c15.23,0 31.12,0.68 41.43,6.59 11.34,5.33 18.36,16.66 18.36,32.32 0,15.98 -6.68,28.84 -18.01,34.76zm757.29 58.04l0 0 -60.47 -145.74 -60.13 145.74 120.6 0zm-1411.6 157.74l0 0 -89.58 0 -0.33 -286.32 -126.7 286.32 -76.73 0 -127.03 -286.57 0 286.57 -177.73 0 -33.57 -81.54 -181.94 0 -33.92 81.54 -94.91 0 156.48 -365.58 129.82 0 148.62 346.12 0 -346.12 142.62 0 114.35 248.01 105.05 -248.01 145.49 0 0 365.58 0.01 0zm357.01 0l0 0 -291.91 0 0 -365.58 291.91 0 0 76.14 -204.52 0 0 65.88 199.61 0 0 74.95 -199.61 0 0 73 204.52 0 0 75.61zm411.57 -267.11l0 0c0,58.28 -38.89,88.39 -61.57,97.43 19.12,7.28 35.46,20.14 43.23,30.78 12.33,18.19 14.46,34.43 14.46,67.08l0 71.81 -88.14 0 -0.33 -46.1c0,-22 2.1,-53.63 -13.8,-71.23 -12.76,-12.85 -32.22,-15.64 -63.67,-15.64l-93.8 0 0 132.96 -87.38 0 0 -365.58 200.98 0c44.65,0 77.56,1.19 105.81,17.52 27.64,16.33 44.21,40.17 44.21,80.95zm139.85 267.11l0 0 -89.16 0 0 -365.58 89.16 0 0 365.58zm1034.35 0l0 0 -123.82 0 -165.62 -274.38 0 274.38 -177.95 0 -34.01 -81.54 -181.52 0 -32.99 81.54 -102.26 0c-42.47,0 -96.25,-9.39 -126.7,-40.43 -30.71,-31.04 -46.69,-73.08 -46.69,-139.57 0,-54.21 9.55,-103.78 47.11,-142.94 28.25,-29.17 72.48,-42.63 132.7,-42.63l84.6 0 0 78.34 -82.82 0c-31.89,0 -49.89,4.74 -67.24,21.65 -14.9,15.39 -25.12,44.49 -25.12,82.81 0,39.16 7.79,67.4 24.03,85.85 13.45,14.47 37.9,18.86 60.89,18.86l39.24 0 123.17 -287.49 130.93 0 147.94 345.78 0 -345.78 133.04 0 153.6 254.6 0 -254.6 89.5 0 0 365.56zm-2886.23 71.8l0 0 149.3 0 33.66 -81.2 75.37 0 33.57 81.2 293.76 0 0 -62.08 26.21 62.34 152.5 0 26.21 -63.27 0 63.01 730.04 0 -0.34 -133.28 14.13 0c9.88,0.34 12.78,1.26 12.78,17.59l0 115.69 377.58 0 0 -31.03c30.45,16.31 77.81,31.03 140.15,31.03l158.83 0 33.99 -81.2 75.37 0 33.25 81.2 306.11 0 0 -77.13 46.35 77.13 245.3 0 0 -509.85 -242.77 0 0 60.22 -33.99 -60.22 -249.09 0 0 60.22 -31.21 -60.22 -336.47 0c-56.33,0 -105.83,7.86 -145.82,29.77l0 -29.77 -232.2 0 0 29.77c-25.45,-22.57 -60.13,-29.77 -98.69,-29.77l-848.28 0 -56.91 131.69 -58.45 -131.69 -267.21 0 0 60.22 -29.35 -60.22 -227.88 0 -105.82 242.42 0 267.44 0.01 0 -0.01 -0.01z"/>
  <path class="fil1" d="M22241.93 4876l-159.26 0c-15.89,0 -26.46,0.6 -35.36,6.61 -9.22,5.92 -12.77,14.71 -12.77,26.3 0,13.81 7.79,23.17 19.11,27.24 9.22,3.21 19.13,4.14 33.67,4.14l47.36 1.27c47.79,1.18 79.7,9.38 99.14,29.43 3.54,2.78 5.67,5.93 8.11,9.05l0 -104.05zm0 241.08l0 0c-21.23,31.03 -62.59,46.76 -118.59,46.76l-168.75 0 0 -78.4 168.06 0c16.67,0 28.34,-2.2 35.36,-9.07 6.09,-5.64 10.33,-13.87 10.33,-23.84 0,-10.67 -4.25,-19.1 -10.68,-24.19 -6.33,-5.58 -15.56,-8.11 -30.78,-8.11 -82.05,-2.78 -184.4,2.53 -184.4,-113.18 0,-53.05 33.67,-108.86 125.37,-108.86l174.05 0 0 -72.75 -161.71 0c-48.8,0 -84.26,11.69 -109.36,29.86l0 -29.86 -239.2 0c-38.25,0 -83.15,9.48 -104.39,29.86l0 -29.86 -427.15 0 0 29.86c-33.99,-24.52 -91.35,-29.86 -117.82,-29.86l-281.74 0 0 29.86c-26.9,-26.05 -86.71,-29.86 -123.17,-29.86l-315.32 0 -72.16 78.1 -67.58 -78.1 -471.02 0 0 510.2 462.16 0 74.35 -79.32 70.04 79.32 284.88 0.25 0 -120.02 28.01 0c37.79,0.58 82.37,-0.95 121.71,-17.95l0 137.71 234.97 0 0 -132.98 11.33 0c14.46,0 15.89,0.6 15.89,15.05l0 117.91 713.79 0c45.33,0 92.7,-11.61 118.92,-32.65l0 32.65 226.42 0c47.12,0 93.14,-6.61 128.15,-23.52l0 -95.03 0.01 0.01zm-348.57 -146.08l0 0c17.02,17.59 26.14,39.84 26.14,77.47 0,78.66 -49.14,115.38 -137.27,115.38l-170.19 0 0 -78.4 169.52 0c16.57,0 28.32,-2.2 35.68,-9.07 6.01,-5.64 10.33,-13.87 10.33,-23.84 0,-10.67 -4.67,-19.11 -10.67,-24.19 -6.68,-5.58 -15.9,-8.11 -31.12,-8.11 -81.72,-2.78 -184.06,2.53 -184.06,-113.18 0,-53.05 33.33,-108.86 124.94,-108.86l175.18 0 0 77.83 -160.29 0c-15.89,0 -26.21,0.59 -35.01,6.6 -9.56,5.92 -13.12,14.71 -13.12,26.3 0,13.81 8.13,23.18 19.13,27.25 9.22,3.21 19.11,4.13 34,4.13l47.04 1.27c47.43,1.16 79.99,9.36 99.78,29.41zm-788.48 -22.58l0 0c-11.69,6.93 -26.14,7.53 -43.14,7.53l-106.15 0 0 -82.13 107.59 0c15.57,0 31.14,0.33 41.7,6.61 11.33,5.92 18.09,17.25 18.09,32.88 0,15.66 -6.76,28.26 -18.09,35.11zm52.79 45.5l0 0c19.44,7.18 35.34,20.05 42.8,30.7 12.34,17.86 14.12,34.51 14.47,66.75l0 72.48 -87.71 0 0 -45.76c0,-21.99 2.1,-54.57 -14.13,-71.56 -12.77,-13.1 -32.23,-16.24 -64.11,-16.24l-93.38 0 0 133.56 -87.8 0 0 -365.66 201.74 0c44.23,0 76.45,1.96 105.13,17.27 27.57,16.65 44.92,39.47 44.92,81.19 -0.01,58.36 -38.94,88.15 -61.93,97.28zm110.38 -195.74l0 0 291.64 0 0 75.63 -204.62 0 0 66.48 199.63 0 0 74.6 -199.63 0 0 72.74 204.62 0.33 0 75.87 -291.64 0 0 -365.66zm-589.54 168.76l0 0 -112.93 0 0 -93.12 113.94 0c31.55,0 53.44,12.86 53.44,44.83 0,31.64 -20.88,48.29 -54.45,48.29zm-199.95 163.65l0 0 -134.17 -148.94 134.17 -144.21 0 293.15zm-346.47 -42.95l0 0 -214.84 0 0 -72.74 191.83 0 0 -74.6 -191.83 0 0 -66.48 219.08 0 95.57 106.56 -99.81 107.27zm694.68 -168.99l0 0c0,101.59 -75.79,122.55 -152.17,122.55l-109.03 0 0 122.65 -169.84 0 -107.59 -121.04 -111.82 121.04 -346.13 0 0 -365.66 351.45 0 107.51 119.87 111.15 -119.87 279.21 0c69.35,0 147.26,19.21 147.26,120.47z"/>
  <polygon class="fil17" points="23098.47,10607.41 23098.47,7334.34 18294.97,7334.34 18294.97,10607.41 "/>
  <path class="fil0" d="M21172.57 8625.47l-455.26 455.75 0 419.7 875.76 -876.01 -875.76 -875.92 0 420.92 455.26 455.56zm-1002.45 0l456.2 -455.56 0 -421.39 -876.48 876.39 876.48 876.48 0 -420.02 -456.2 -455.88 0 -0.01zm-212.45 1031.35l14.16 0 -37.84 163.08 -14.3 0c-1.94,-44.29 -13.22,-77.64 -33.04,-99.37 -19.95,-21.78 -46.29,-32.29 -78.59,-32.29 -34.52,0 -69.68,14.28 -103.93,44.24 -34.52,29.73 -63.9,75.76 -87.86,136.74 -19.22,49.6 -29,98.45 -29,147.04 0,43.13 10.54,76.34 32.15,99.41 21.26,22.99 50.19,33.94 86.92,33.94 30.58,0 58.09,-6.38 82.53,-19.67 24.98,-12.81 49.58,-34.22 75.02,-63.56l18.16 0c-31.4,46.61 -62.99,79.47 -94.57,98.57 -32.12,18.93 -71.14,28.29 -117.35,28.29 -61.58,0 -111.15,-18.65 -148.97,-56.27 -37.82,-37.12 -57.01,-85.94 -57.01,-146.36 0,-56.45 15.33,-110.38 45.08,-161.84 29.94,-51.27 73.55,-92.48 130,-124.54 55.82,-31.37 112.39,-47.46 168.11,-47.46 20.86,0 47.2,4.59 78.6,13.69 16.07,4.78 27.53,6.89 33.8,6.89 12.8,0.05 25.1,-6.84 37.94,-20.53l0 0zm296.55 161.23l-9.83 167.34 -133.21 0 143.04 -167.34zm-23.76 322.52c-5.97,10.56 -12.2,18.13 -19.09,21.54 -3.87,1.65 -16.07,3.58 -38.1,5.51l-4.59 14.16 222.25 0 3.88 -14.16c-16.07,-1.2 -27.55,-5.78 -34.27,-13.41 -6.96,-8.19 -10.84,-20.53 -10.84,-37.8 0,-4.14 0.75,-17.54 1.48,-39.27l16.8 -420.32 -16.8 0 -363.55 433.98c-26.81,31.84 -46.62,52.42 -61.22,62.2 -10.57,7.44 -22.07,12.23 -35.99,14.61l-3.76 14.16 152.78 0 0 -14.16c-14.89,-0.73 -25.17,-3.86 -32.12,-8.91 -5.95,-5.24 -9.08,-10.71 -9.08,-16.72 0,-5.73 0.7,-11.43 3.55,-17.5 3.43,-7.62 8.63,-16 15.62,-25.35l35.89 -43.6 32.12 -39.28 159.01 0 -3.1 65.31c-1.77,27.85 -5.09,47.51 -10.87,59.01l0 0zm531.17 -444.75c20.58,-0.91 37.39,5.34 49.6,17.54 12.2,12.21 18.41,28.3 18.41,48.1 0,21.12 -5.73,42.85 -17.97,66.56 -11.95,23.7 -28.01,40.78 -47.36,51.03 -20.39,10.3 -47.04,15.8 -81.45,16.09l57.93 -199.04 20.84 -0.28zm-149.89 -2.87c7.62,5.78 10.74,13.15 10.74,21.78 0,10.84 -4.31,32.14 -13.85,64.18l-90.79 315.62c-7.62,25.17 -14.6,42.13 -19.84,49.89 -5.24,7.86 -12.79,13.94 -21.57,17.4 -8.63,3.87 -23.41,5.79 -44.24,5.79l-4.89 14.16 213.46 0c79.51,0 134.51,-6.26 165.17,-17.73 28.78,-11.2 53.79,-30.52 71.88,-55.54 18.14,-25.4 27.24,-51.04 27.24,-76.93 0,-27.97 -9.1,-52.42 -27.24,-73 -18.92,-21.08 -51.26,-38.08 -99.46,-51.49 45.83,-10.29 79.51,-21.73 101.55,-33.94 22.32,-12.23 39.09,-28.1 49.55,-46.75 11.53,-19.15 17.06,-37.35 17.06,-55.81 0,-21.77 -6.94,-41.84 -20.63,-59.57 -13.88,-17.09 -33.94,-29.02 -59.57,-34.94 -19.19,-4.59 -51.31,-7.49 -96.78,-7.49l-202.8 0.01 -3.84 14.16c25.12,0.84 41.12,4.26 48.83,10.21l129.97 238.55c13.22,5.06 23.98,14.16 32.88,27.52 8.35,13.41 12.23,28.48 12.23,45.75 0,35.7 -10.84,69.21 -32.84,100.59 -22.22,31.27 -61.27,47.36 -117.07,47.36 -6.7,0 -16.07,-0.47 -28.27,-1.14l65.17 -228.25c32.03,0 54.07,3.12 67.9,8.18l-129.97 -238.55 0 0zm675.53 125.08l-9.55 167.34 -132.67 0 142.22 -167.34zm-23.74 322.52c-6.21,10.56 -12.18,18.13 -19.15,21.54 -3.32,1.65 -15.99,3.58 -38.26,5.51l-3.63 14.16 221.56 0 4.04 -14.16c-16.2,-1.2 -27.8,-5.78 -34.69,-13.41 -6.99,-8.19 -9.83,-20.53 -9.83,-37.8 0,-4.14 0,-17.54 0.73,-39.27l16.72 -420.32 -16.72 0 -363.73 433.99c-25.91,31.85 -46.57,52.43 -60.44,62.21 -10.7,7.43 -22.93,12.22 -36.62,14.6l-3.86 14.16 153.51 0 0 -14.16c-15.34,-0.72 -25.83,-3.86 -32.02,-8.91 -6.74,-5.24 -9.87,-10.7 -9.87,-16.72 0,-5.73 1.24,-11.43 3.86,-17.5 3.13,-7.62 8.35,-15.99 15.33,-25.35l36.67 -43.6 32.01 -39.28 158.57 0 -3.57 65.32c-1.47,27.82 -4.59,47.48 -10.61,58.99l0 0zm665.75 -102.95l-56.73 144.15 -409.75 0 3.86 -14.16c24.85,0 42.55,-4.59 53.59,-14.16 11.48,-9.5 22.02,-30.65 31.42,-63.9l95.28 -329.31c5.5,-18.18 7.71,-32.29 7.71,-42.6 0,-10.3 -2.94,-18.46 -11.57,-24.2 -6.7,-6.03 -22.02,-9.88 -44.29,-10.8l4.82 -14.15 245.88 -0.01 -4.29 14.16c-23.98,0.5 -41.65,5.74 -52.97,16.09 -11.95,10.02 -22.22,30.7 -31.32,61.51l-87.19 301.51c-10.74,38.07 -16.72,61.5 -16.72,69.96 0,4.91 3.13,9.79 8.35,14.11 6.26,4.05 15.29,6.9 27.8,6.9 41.64,0 82.09,-10.02 121.12,-29.17 39.09,-18.93 71.85,-47.67 98.66,-85.93l16.3 0 0.01 0z"/>
  <path class="fil2" d="M13353.98 9243.34l178.51 0c158.85,0 201.67,111.19 201.67,183.71 0,139.52 -95,253.8 -298.07,253.8l-174.73 0 0 -11.05c33.85,-6.21 44.21,-8.29 55.94,-51.11l82.25 -291.79c2.07,-7.59 7.59,-29.01 7.59,-42.82 0,-23.48 -17.96,-26.94 -53.17,-29.7l0 -11.05z"/>
  <path class="fil2" d="M13884.62 9609.71c-26.94,40.76 -57.32,78.74 -96,78.74 -32.46,0 -32.46,-30.39 -32.46,-42.83 0,-32.46 54.55,-203.75 54.55,-223.07 0,-14.51 -5.52,-17.97 -43.51,-17.97l0 -11.05c26.24,-1.38 83.57,-12.44 110.5,-17.26l2.07 1.38 -60.78 222.39c-2.76,9.67 -11.06,37.29 -11.06,45.58 0,4.84 4.83,10.36 11.06,10.36 8.29,0 28.31,-13.82 56.63,-53.87l8.98 7.59z"/>
  <path class="fil2" d="M13870.8 9302.37c-17.26,0 -33.15,-11.74 -33.15,-35.91 0,-24.18 15.89,-37.3 32.47,-37.3 22.79,0 34.53,22.8 34.53,37.99 0,13.82 -11.05,35.23 -33.85,35.23z"/>
  <path class="fil2" d="M14209.19 9609.02c-34.53,46.27 -58.7,78.05 -96.01,78.05 -31.76,0 -33.14,-20.72 -33.14,-40.74 0,-16.59 51.11,-185.11 51.11,-212.73 0,-12.44 -4.14,-22.1 -17.26,-22.1 -33.15,0 -76.67,59.4 -101.53,98.08 -31.77,47.65 -40.75,77.35 -69.07,171.28l-51.79 0c21.41,-78.04 67.68,-239.65 67.68,-254.16 0,-10.36 -6.91,-17.96 -44.2,-17.96l0 -11.06c37.29,-6.9 74.59,-13.81 111.88,-21.4l2.07 1.38 -44.2 144.34 1.38 1.38c32.46,-51.1 95.99,-147.1 153.32,-147.1 31.76,0 47.65,16.57 47.65,45.58 0,29.7 -55.26,200.28 -55.26,221.01 0,10.36 9.68,11.74 11.06,11.74 13.81,0 31.08,-22.1 56.64,-54.56l9.67 8.97z"/>
  <path class="fil2" d="M14453 9613.86c-7.59,11.05 -70.45,74.59 -139.52,74.59 -72.52,0 -94.61,-53.88 -94.61,-97.38 0,-98.77 109.12,-214.8 206.51,-214.8 35.22,0 56.64,16.57 56.64,46.96 0,54.56 -64.93,110.5 -176.82,126.39l-19.34 2.77c-3.45,14.5 -6.91,28.32 -6.91,42.13 0,46.97 35.92,62.85 64.93,62.85 37.29,0 66.3,-23.47 100.84,-51.79l8.29 8.29z"/>
  <path class="fil2" d="M14475.71 9680.85l55.95 -201.67c6.9,-25.55 11.05,-49.03 11.05,-55.25 0,-9.67 -3.45,-20.73 -24.86,-20.73 -7.59,0 -15.2,2.07 -22.79,3.45l0 -11.74c35.23,-4.83 75.97,-13.82 107.05,-18.64l2.07 1.38 -33.85 137.43 1.38 1.39 5.53 -13.82c22.79,-45.58 75.28,-126.39 118.8,-126.39 15.88,0 33.14,10.35 33.14,33.84 0,35.91 -24.86,35.91 -32.46,35.91 -29.7,0 -19.35,-24.86 -35.91,-24.86 -21.42,0 -62.85,76.67 -68.38,87.03 -26.24,49.73 -35.91,80.81 -64.23,172.66l-52.5 0z"/>
  <path class="fil2" d="M14697.9 9580.01c4.83,30.39 15.88,93.93 71.82,93.93 38.67,0 49.73,-33.14 49.73,-55.94 0,-45.59 -82.19,-111.88 -82.19,-165.07 0,-21.41 9.67,-76.66 82.88,-76.66 31.08,0 44.88,11.74 65.61,11.74 11.73,0 15.88,-6.92 19.34,-12.44l9.67 0 -13.81 96 -11.06 0c-3.45,-39.38 -20.03,-79.43 -64.93,-79.43 -15.19,0 -37.29,6.21 -37.29,40.05 0,43.51 84.26,104.99 84.26,163.69 0,75.29 -64.23,92.56 -102.91,92.56 -20.72,0 -48.34,-13.12 -68.37,-13.12 -9.68,0 -12.44,6.9 -16.58,14.5l-11.06 0 13.82 -109.82 11.06 0z"/>
  <path class="fil2" d="M15457.47 9357.62c-1.38,-19.34 -7.59,-111.88 -106.36,-111.88 -138.13,0 -208.58,167.13 -208.58,268.66 0,90.47 37.99,147.8 120.17,147.8 78.05,0 126.39,-49.03 159.55,-81.49l11.74 9.67c-25.56,30.38 -87.03,102.9 -187.87,102.9 -80.11,0 -180.95,-48.34 -180.95,-186.47 0,-133.3 122.25,-285.93 280.41,-285.93 49.73,0 91.85,16.57 107.75,16.57 20.03,0 24.17,-8.29 27.62,-15.19l14.5 0 -25.55 137.43 -12.44 -2.06z"/>
  <path class="fil2" d="M15614.32 9602.12c-35.23,53.17 -62.17,86.34 -104.98,86.34 -30.39,0 -33.16,-23.48 -33.16,-42.83 0,-14.5 100.15,-375.02 100.15,-389.53 0,-17.96 -29.01,-17.96 -46.96,-17.27l0 -11.05c35.91,-4.14 71.82,-10.35 107.74,-18.64l3.45 3.44 -104.29 399.89c-1.38,6.22 -6.9,24.86 -6.9,32.47 0,4.14 0,13.82 10.35,13.82 17.26,0 31.77,-19.35 65.61,-62.86l8.98 6.22z"/>
  <path class="fil2" d="M15927.34 9606.26c-43.51,62.85 -61.47,80.81 -96.01,80.81 -31.07,0 -32.46,-25.55 -32.46,-35.91 0,-12.43 13.82,-70.44 29.7,-127.08l-2.06 0c-46.97,78.05 -98.08,164.38 -160.23,164.38 -24.86,0 -37.99,-10.36 -37.99,-40.76 0,-30.39 52.49,-204.43 52.49,-223.07 0,-20.04 -13.12,-20.04 -41.44,-20.04l0 -9.67c34.53,-4.14 69.06,-10.36 103.6,-18.64l2.07 1.38 -62.85 250.71c-2.07,8.97 0,23.48 14.5,23.48 29.7,0 73.2,-64.93 96.69,-100.84 33.85,-51.12 49.04,-94.62 75.98,-168.53l51.11 0 -54.56 206.52c-4.15,13.82 -13.12,44.2 -13.12,54.56 0,3.45 0.68,11.05 8.29,11.05 13.12,0 32.46,-24.17 56.64,-54.56l9.67 6.21z"/>
  <path class="fil2" d="M15990.89 9225.01c34.53,-4.14 69.76,-8.98 105.67,-15.88l3.45 3.44c-15.2,56.65 -36.18,133.84 -59.65,211.89l1.38 0.69c22.78,-35.92 58.2,-70.47 120.36,-70.47 48.35,0 79.5,54.74 79.5,105.15 0,109.12 -115.34,228.61 -221.01,228.61 -36.61,0 -89.79,-21.42 -89.79,-36.61l0 -2.77 93.93 -346.02c4.83,-19.35 11.05,-36.61 11.05,-46.27 0,-15.89 -4.82,-19.35 -44.88,-20.03l0 -11.74z"/>
  <path class="fil2" d="M13121.08 10201.26c33.84,-6.21 44.2,-8.28 55.94,-51.11l82.25 -289.09c4.14,-13.82 7.59,-30.38 7.59,-42.82 0,-24.17 -18.65,-26.24 -48.35,-29.69l0 -11.06 170.6 0 0 11.06c-33.84,6.2 -44.89,7.59 -56.63,51.1l-82.26 289.78c-4.14,13.81 -7.59,27.62 -7.59,44.2 0,22.1 17.27,24.17 46.97,27.62l0 11.06 -168.52 0 0 -11.06z"/>
  <path class="fil2" d="M13651.42 10140.48c-34.54,46.27 -58.71,78.05 -96,78.05 -31.76,0 -33.15,-20.73 -33.15,-40.75 0,-16.58 51.11,-185.11 51.11,-212.73 0,-12.43 -4.15,-22.1 -17.27,-22.1 -33.14,0 -76.66,59.4 -101.52,98.07 -31.77,47.66 -40.76,77.35 -69.06,171.29l-51.8 0c21.41,-78.05 67.68,-239.65 67.68,-254.17 0,-10.35 -6.91,-17.96 -44.2,-17.96l0 -11.05c37.29,-6.9 74.59,-13.82 111.88,-21.41l2.07 1.39 -44.21 144.34 1.39 1.38c32.46,-51.11 96,-147.11 153.32,-147.11 31.77,0 47.65,16.58 47.65,45.58 0,29.71 -55.25,200.28 -55.25,221.02 0,10.35 9.67,11.74 11.05,11.74 13.82,0 31.08,-22.1 56.64,-54.56l9.67 8.97z"/>
  <path class="fil2" d="M13835.27 9938.8l-58.01 0 -60.79 229.99c-0.68,2.07 -0.68,3.45 -0.68,5.53 0,6.21 3.45,11.74 11.05,11.74 13.82,0 38,-32.47 55.26,-54.56l8.97 4.83c-35.22,53.17 -62.16,83.57 -98.07,83.57 -13.82,0 -33.15,-6.91 -33.15,-27.62 0,-10.36 13.12,-52.5 15.88,-63.55l49.73 -189.93 -51.11 0c-0.68,-4.14 -0.68,-7.59 1.38,-11.05 4.14,-6.21 23.48,-11.06 35.23,-17.26 22.79,-11.74 55.94,-42.83 75.28,-67 2.77,-3.45 5.53,-9.67 11.74,-8.29 4.83,-1.38 6.22,4.83 4.83,10.36l-19.34 71.13 55.26 0 -3.46 22.1z"/>
  <path class="fil2" d="M14049.34 10145.31c-7.59,11.05 -70.44,74.59 -139.51,74.59 -72.52,0 -94.62,-53.88 -94.62,-97.38 0,-98.76 109.12,-214.8 206.51,-214.8 35.23,0 56.64,16.58 56.64,46.97 0,54.55 -64.93,110.5 -176.81,126.39l-19.35 2.77c-3.44,14.5 -6.9,28.32 -6.9,42.13 0,46.97 35.91,62.85 64.92,62.85 37.3,0 66.3,-23.48 100.84,-51.8l8.29 8.29z"/>
  <path class="fil2" d="M14074.76 10212.31l55.94 -201.68c6.91,-25.55 11.05,-49.03 11.05,-55.25 0,-9.67 -3.44,-20.72 -24.86,-20.72 -7.59,0 -15.19,2.06 -22.79,3.45l0 -11.75c35.23,-4.82 75.97,-13.81 107.05,-18.64l2.07 1.39 -33.85 137.43 1.39 1.38 5.52 -13.82c22.8,-45.58 75.29,-126.39 118.8,-126.39 15.88,0 33.15,10.36 33.15,33.85 0,35.91 -24.86,35.91 -32.47,35.91 -29.7,0 -19.34,-24.86 -35.91,-24.86 -21.41,0 -62.85,76.66 -68.38,87.02 -26.24,49.73 -35.91,80.81 -64.23,172.67l-52.49 0z"/>
  <path class="fil2" d="M14628.85 10140.48c-34.53,46.27 -58.7,78.05 -96,78.05 -31.77,0 -33.15,-20.73 -33.15,-40.75 0,-16.58 51.11,-185.11 51.11,-212.73 0,-12.43 -4.14,-22.1 -17.26,-22.1 -33.15,0 -76.67,59.4 -101.53,98.07 -31.77,47.66 -40.75,77.35 -69.07,171.29l-51.79 0c21.41,-78.05 67.69,-239.65 67.69,-254.17 0,-10.35 -6.92,-17.96 -44.21,-17.96l0 -11.05c37.29,-6.9 74.59,-13.82 111.88,-21.41l2.07 1.39 -44.2 144.34 1.38 1.38c32.46,-51.11 96,-147.11 153.32,-147.11 31.77,0 47.65,16.58 47.65,45.58 0,29.71 -55.25,200.28 -55.25,221.02 0,10.35 9.67,11.74 11.05,11.74 13.82,0 31.08,-22.1 56.64,-54.56l9.67 8.97z"/>
  <path class="fil2" d="M14945.87 10143.24c-41.43,51.12 -64.92,75.98 -94.61,75.98 -29.01,0 -29.01,-17.97 -29.01,-29.71 0,-15.88 3.45,-31.08 14.51,-73.2l-1.39 -1.38c-57.32,84.26 -93.93,104.98 -135.36,104.98 -69.07,0 -71.14,-61.47 -71.14,-81.49 0,-101.53 105.67,-230.69 197.52,-230.69 29.7,0 52.49,17.96 54.56,37.3l1.38 0 6.91 -30.39 2.07 -2.07 42.13 -4.83 4.83 2.07c-2.06,8.29 -65.61,243.8 -65.61,265.22 0,4.82 4.15,8.97 9.67,8.97 10.36,0 24.17,-17.27 55.26,-47.65l8.28 6.9z"/>
  <path class="fil2" d="M15120.26 9938.8l-58.01 0 -60.79 229.99c-0.69,2.07 -0.69,3.45 -0.69,5.53 0,6.21 3.46,11.74 11.06,11.74 13.81,0 37.98,-32.47 55.25,-54.56l8.98 4.83c-35.23,53.17 -62.17,83.57 -98.08,83.57 -13.82,0 -33.15,-6.91 -33.15,-27.62 0,-10.36 13.12,-52.5 15.89,-63.55l49.72 -189.93 -51.1 0c-0.69,-4.14 -0.69,-7.59 1.38,-11.05 4.14,-6.21 23.47,-11.06 35.22,-17.26 22.8,-11.74 55.95,-42.83 75.29,-67 2.76,-3.45 5.53,-9.67 11.74,-8.29 4.83,-1.38 6.21,4.83 4.83,10.36l-19.34 71.13 55.25 0 -3.45 22.1z"/>
  <path class="fil2" d="M15265.37 10141.18c-26.94,40.75 -57.33,78.73 -96,78.73 -32.47,0 -32.47,-30.39 -32.47,-42.82 0,-32.46 54.56,-203.75 54.56,-223.08 0,-14.5 -5.52,-17.96 -43.51,-17.96l0 -11.05c26.24,-1.39 83.57,-12.44 110.5,-17.27l2.06 1.39 -60.78 222.39c-2.76,9.67 -11.05,37.29 -11.05,45.58 0,4.83 4.83,10.35 11.05,10.35 8.29,0 28.32,-13.81 56.64,-53.86l8.98 7.59z"/>
  <path class="fil2" d="M15251.55 9833.83c-17.27,0 -33.15,-11.74 -33.15,-35.91 0,-24.18 15.88,-37.3 32.46,-37.3 22.79,0 34.53,22.79 34.53,37.99 0,13.82 -11.05,35.23 -33.84,35.23z"/>
  <path class="fil2" d="M15580.4 10009.95c0,84.96 -94.61,209.96 -200.28,209.96 -73.21,0 -104.29,-42.13 -104.29,-99.46 0,-101.52 102.22,-212.72 203.05,-212.72 80.12,0 101.52,56.64 101.52,102.22z"/>
  <path class="fil2" d="M15878.6 10140.48c-34.53,46.27 -58.7,78.05 -96,78.05 -31.76,0 -33.15,-20.73 -33.15,-40.75 0,-16.58 51.11,-185.11 51.11,-212.73 0,-12.43 -4.14,-22.1 -17.26,-22.1 -33.15,0 -76.67,59.4 -101.53,98.07 -31.77,47.66 -40.75,77.35 -69.06,171.29l-51.79 0c21.41,-78.05 67.68,-239.65 67.68,-254.17 0,-10.35 -6.91,-17.96 -44.21,-17.96l0 -11.05c37.3,-6.9 74.59,-13.82 111.88,-21.41l2.07 1.39 -44.2 144.34 1.38 1.38c32.47,-51.11 96,-147.11 153.32,-147.11 31.77,0 47.66,16.58 47.66,45.58 0,29.71 -55.26,200.28 -55.26,221.02 0,10.35 9.67,11.74 11.05,11.74 13.82,0 31.09,-22.1 56.64,-54.56l9.67 8.97z"/>
  <path class="fil2" d="M16198.32 10143.24c-41.44,51.12 -64.93,75.98 -94.62,75.98 -29,0 -29,-17.97 -29,-29.71 0,-15.88 3.44,-31.08 14.5,-73.2l-1.39 -1.38c-57.32,84.26 -93.93,104.98 -135.37,104.98 -69.06,0 -71.13,-61.47 -71.13,-81.49 0,-101.53 105.67,-230.69 197.52,-230.69 29.7,0 52.49,17.96 54.56,37.3l1.38 0 6.91 -30.39 2.07 -2.07 42.13 -4.83 4.84 2.07c-2.07,8.29 -65.62,243.8 -65.62,265.22 0,4.82 4.15,8.97 9.67,8.97 10.36,0 24.18,-17.27 55.26,-47.65l8.29 6.9z"/>
  <path class="fil2" d="M16330.06 10152.47c-35.22,53.17 -48.67,67.44 -91.49,67.44 -30.39,0 -33.15,-23.47 -33.15,-42.82 0,-14.5 100.14,-375.02 100.14,-389.53 0,-17.97 -29,-17.97 -46.96,-17.27l0 -11.05c35.91,-4.14 71.82,-10.36 107.75,-18.65l3.45 3.45 -104.29 399.89c-1.38,6.21 -6.91,24.86 -6.91,32.46 0,4.15 0,13.82 10.36,13.82 17.26,0 18.28,-0.45 52.13,-43.97l8.97 6.22z"/>
  <path class="fil18" d="M15147.24 9087.73c377.15,0 682.92,-305.76 682.92,-682.92 0,-377.15 -305.77,-682.93 -682.92,-682.93l-863.29 0c-377.15,0 -682.93,305.77 -682.93,682.93 0,377.15 305.77,682.92 682.93,682.92l863.29 0z"/>
  <path class="fil1" d="M14283.95 9072.46c368.74,0 667.66,-298.93 667.66,-667.66 0,-368.74 -298.93,-667.66 -667.66,-667.66 -368.74,0 -667.66,298.93 -667.66,667.66 0,368.73 298.93,667.66 667.66,667.66z"/>
  <path class="fil18" d="M14149.18 8019.34c-159.24,55.68 -273.46,207.23 -273.46,385.46 0,178.54 114.62,330.31 274.3,385.74l-0.84 -771.2z"/>
  <path class="fil18" d="M14692.18 8404.8c0,178.54 -114.62,330.31 -274.3,385.74l0.84 -771.2c159.24,55.68 273.46,207.23 273.46,385.46z"/>
  <path class="fil1" d="M13399.5 9568.96c-6.21,22.79 -15.2,53.17 -15.2,64.23 0,22.79 16.59,26.94 49.04,26.94 217.56,0 224.15,-199.24 224.15,-241.37 0,-69.76 -9.99,-154.7 -132.24,-154.7 -39.37,0 -42.14,10.36 -44.89,20.03l-80.87 284.88 0.01 0z"/>
  <path class="fil1" d="M14290.69 9537.18c142.28,-29 145.73,-111.88 145.73,-117.4 0,-14.51 -6.91,-27.63 -24.17,-27.63 -37.3,0 -84.27,53.18 -109.82,114.65l-11.74 30.38z"/>
  <path class="fil1" d="M16135.17 9391.23c-75.97,0 -135.44,135.85 -144.98,258.55 -0.37,4.81 0,22.79 32.47,22.79 94.62,0 160.23,-145.73 160.23,-203.75 0,-21.41 -4.21,-77.59 -47.72,-77.59z"/>
  <path class="fil1" d="M13887.04 10068.64c142.28,-29.01 145.72,-111.88 145.72,-117.41 0,-14.51 -6.91,-27.63 -24.17,-27.63 -37.29,0 -84.26,53.19 -109.81,114.65l-11.74 30.39z"/>
  <path class="fil1" d="M14728.32 10186.07c73.21,0 140.9,-149.19 140.9,-216.87 0,-33.15 -19.34,-46.27 -39.37,-46.27 -80.81,0 -142.96,151.95 -142.96,214.1 0,36.61 22.79,49.04 41.43,49.04z"/>
  <path class="fil1" d="M15333.82 10141.18c0,39.37 20.72,64.23 55.25,64.23 78.73,0 133.3,-142.96 133.3,-216.87 0,-35.91 -15.21,-66.29 -48.35,-66.29 -77.35,0 -140.2,137.43 -140.2,218.93z"/>
  <path class="fil1" d="M15980.75 10186.07c73.21,0 140.9,-149.19 140.9,-216.87 0,-33.15 -19.34,-46.27 -39.37,-46.27 -80.81,0 -142.97,151.95 -142.97,214.1 0,36.61 22.8,49.04 41.44,49.04z"/>
  <path class="fil19" d="M2217.28 1760.61l-1969.69 0c-137.55,0 -247.59,-110.03 -247.59,-247.59l0 -1265.44c0,-137.55 110.03,-247.59 247.59,-247.59l1964.19 0c137.54,0 247.59,110.03 247.59,247.59l0 1270.94c5.5,132.05 -104.55,242.09 -242.09,242.09zm-1969.69 -1595.56c-44.01,0 -82.53,38.51 -82.53,82.53l0 1270.94c0,44.01 38.51,82.53 82.53,82.53l1964.19 0c44.01,0 82.52,-38.51 82.52,-82.53l0 -1270.94c0,-44.01 -38.51,-82.53 -82.52,-82.53l-1964.19 0z"/>
  <polygon class="fil19" points="82.54,693.24 2376.84,693.24 2376.84,385.15 82.54,385.15 "/>
  <path class="fil19" d="M2085.25 1248.95c0,-100.28 -81.29,-181.57 -181.57,-181.57 -100.28,0 -181.57,81.29 -181.57,181.57 0,100.28 81.29,181.57 181.57,181.57 100.28,0 181.57,-81.29 181.57,-181.57z"/>
  <path class="fil19" d="M1843.16 1248.95c0,-100.28 -81.29,-181.57 -181.57,-181.57 -100.28,0 -181.57,81.29 -181.57,181.57 0,100.28 81.29,181.57 181.57,181.57 100.28,0 181.57,-81.29 181.57,-181.57z"/>
  <path class="fil19" d="M929.84 957.35l-533.69 0c-16.51,0 -27.5,-11.01 -27.5,-27.52 0,-16.5 11,-27.5 27.5,-27.5l533.69 0c16.51,0 27.52,11.01 27.52,27.5 0,11.01 -11.01,27.52 -27.5,27.52l-0.02 0z"/>
  <g id="_2331725695840">
   <path class="fil20" d="M3723.44 60.25c-242.02,0 -438.2,196.18 -438.2,438.2l0 724.69c0,235.67 191.03,426.74 426.7,426.74l0 -151.01 -23.59 0c-139.22,0 -252.01,-112.81 -252.01,-251.97l0 -785.39c0,-139.2 112.81,-252.01 252.01,-252.01l1381.93 0c139.15,0 252.01,112.81 252.01,252.01l0 785.39c0,139.16 -112.86,251.97 -252.01,251.97l-19.87 0 0 151.01c232.51,0 420.93,-188.48 420.93,-420.89l0 -742.05c0,-235.66 -191.03,-426.68 -426.68,-426.68l-1321.21 0 0 -0.01 0 -0.01z"/>
   <path class="fil20" d="M3807.28 1404.37l0 -1119.48 -89.37 0c-102.35,0 -185.37,83 -185.37,185.41l0 748.74c0,102.41 83,185.41 185.37,185.41l89.37 0.02 0 -0.09 0 -0.01z"/>
   <polygon class="fil20" points="4628.35,1404.37 4867.34,1404.37 4867.34,284.89 4628.35,284.89 "/>
   <polygon class="fil20" points="4152.14,1404.37 4327.98,1404.37 4327.98,284.89 4152.14,284.89 "/>
   <polygon class="fil20" points="4428.11,1404.37 4528.16,1404.37 4528.16,284.89 4428.11,284.89 "/>
   <polygon class="fil20" points="3906.84,1404.37 4055.99,1404.37 4055.99,284.89 3906.84,284.89 "/>
   <path class="fil20" d="M3887.71 1482.59c-54.44,0 -80.4,48.32 -80.4,109.23 0.43,59.6 24.38,108.54 78.76,108.54 53.79,0 80.02,-44.73 80.02,-109.83 -0.03,-57.74 -22.05,-107.94 -78.4,-107.94l0.01 0zm-0.35 180.53c-19.05,0 -30.75,-23.01 -30.42,-71.29 -0.33,-48.96 11.99,-71.93 30.1,-71.93 19.83,0 29.86,24.61 29.86,71.29 -0.06,47.98 -10.41,71.94 -29.54,71.94l0 -0.01z"/>
   <path class="fil20" d="M4095.39 1482.59c-54.49,0 -80.32,48.32 -80.32,109.23 0.28,59.6 24.25,108.54 78.68,108.54 53.84,0 80.06,-44.73 80.06,-109.83 0.02,-57.74 -22.05,-107.94 -78.43,-107.94zm-0.28 180.53c-19.13,0 -30.79,-23.01 -30.47,-71.29 -0.33,-48.96 11.99,-71.93 30.1,-71.93 19.74,0 29.86,24.61 29.86,71.29 0,47.98 -10.41,71.94 -29.49,71.94l0 -0.01z"/>
   <polygon class="fil20" points="4218.05,1511.81 4226.18,1549.34 4266.34,1530.85 4266.98,1530.85 4266.98,1697.02 4314.14,1697.02 4314.14,1485.57 4273.82,1485.57 "/>
   <path class="fil20" d="M4453.83 1655.64l19.62 -16.19c30.47,-27.21 56.16,-55.37 56.16,-90.7 0,-38.27 -26.16,-66.14 -73.85,-66.14 -28.43,0 -53.14,9.72 -68.92,21.72l13.9 35.34c11.06,-8.46 26.84,-17.51 45.09,-17.51 24.3,0 34.66,13.6 34.66,30.84 -0.67,24.61 -23.08,48.32 -69.06,89.41l-27.34 24.61 0 30 149.13 0 0 -41.52 -79.29 0 -0.06 0.14 0 0 -0.03 -0.01z"/>
   <path class="fil20" d="M4668.06 1482.59c-46.31,0 -79.38,34.68 -79.38,75.85 0,40.83 30.1,65.82 65.78,65.82 19.13,0 32.64,-5.54 42.08,-15.24l1.02 0.26c-4,15.89 -13.04,29.49 -26.62,38.93 -11.34,7.81 -26.29,11.99 -41.25,12.92 -9.72,0.7 -15.46,0.7 -21.14,0l0 38.6c5.68,0.33 13.71,0.65 22.1,0 32.74,-1.3 60.25,-11.34 80.31,-29.44 23,-21.09 36.83,-53.22 36.83,-96.93 0.07,-49.31 -25.58,-90.77 -79.73,-90.77l0 0.01zm26.88 92.7c-4.44,7.43 -13.9,13.97 -27.12,13.97 -20.21,0 -29.86,-15.52 -29.86,-33.66 -0.37,-22.1 11.99,-36.92 28.79,-36.92 22.35,0 30.84,22.02 30.84,44.36 0.03,6.16 -0.93,9.32 -2.65,12.25l0.01 0z"/>
   <path class="fil20" d="M4920.99 1573.67c-14.96,-10.73 -35.33,-15.25 -55.36,-15.25 -5.17,0 -9.11,0.19 -13.66,0.88l4.55 -32.19 82.54 0.02 0 -41.63 -116.94 0 -13.97 110.82c8.79,-1.25 16.9,-1.81 28.55,-1.81 42.08,0 59.32,13.42 59.32,35.17 0,22.29 -21.84,32.06 -42.16,32.06 -19.08,0 -38.23,-5.81 -47.61,-10.36l-8.73 36.97c11.61,6.14 33.03,12 58.67,12 56.75,0 90.39,-34.6 90.39,-73.85 0.02,-24.63 -9.7,-42.14 -25.58,-52.82z"/>
   <path class="fil20" d="M4965.54 284.89l0 1119.48 75.01 0c102.4,0 185.41,-83 185.41,-185.41l0 -748.7c0,-102.41 -83,-185.41 -185.41,-185.41l-75.01 0.03 0 0 0 0.02 0 -0.01z"/>
  </g>
 </g>
</svg>
